<?xml version="1.0" encoding="UTF-8" standalone="no" ?>
<!DOCTYPE svg PUBLIC "-//W3C//DTD SVG 1.1//EN" "http://www.w3.org/Graphics/SVG/1.1/DTD/svg11.dtd">
<svg xmlns="http://www.w3.org/2000/svg" xmlns:xlink="http://www.w3.org/1999/xlink" version="1.1" width="640" height="480" viewBox="0 0 640 480" xml:space="preserve">
<desc>Created with Fabric.js 3.6.6</desc>
<defs>
</defs>
<g transform="matrix(1 0 0 1 191.53 221.11)"  >
<path style="stroke: rgb(0,0,0); stroke-width: 2; stroke-dasharray: none; stroke-linecap: butt; stroke-dashoffset: 0; stroke-linejoin: miter; stroke-miterlimit: 4; fill: none; fill-rule: nonzero; opacity: 1;" vector-effect="non-scaling-stroke"  transform=" translate(-190.53, -220.11)" d="M 141 357 Q 158 241 154 229 Q 154 223 155 218 Q 176 165 177 155 Q 183 135 197 123 Q 213 96 215 88 Q 220 82 227 86 Q 243 107 234 126 Q 228 157 221 161 Q 213 195 208 201 Q 209 229 212 234" stroke-linecap="round" />
</g>
<g transform="matrix(1 0 0 1 185.5 394)"  >
<path style="stroke: rgb(0,0,0); stroke-width: 2; stroke-dasharray: none; stroke-linecap: butt; stroke-dashoffset: 0; stroke-linejoin: miter; stroke-miterlimit: 4; fill: none; fill-rule: nonzero; opacity: 1;" vector-effect="non-scaling-stroke"  transform=" translate(-184.5, -393)" d="M 143 358 Q 207 373 226 428" stroke-linecap="round" />
</g>
<g transform="matrix(1 0 0 1 378.58 178.48)"  >
<path style="stroke: rgb(0,0,0); stroke-width: 2; stroke-dasharray: none; stroke-linecap: butt; stroke-dashoffset: 0; stroke-linejoin: miter; stroke-miterlimit: 4; fill: none; fill-rule: nonzero; opacity: 1;" vector-effect="non-scaling-stroke"  transform=" translate(-377.58, -177.48)" d="M 353 160 L 354 196 Q 366 196 383 191 Q 407 178 391 168 Q 372 158 353 160" stroke-linecap="round" />
</g>
<g transform="matrix(1 0 0 1 375.33 235.8)"  >
<path style="stroke: rgb(0,0,0); stroke-width: 2; stroke-dasharray: none; stroke-linecap: butt; stroke-dashoffset: 0; stroke-linejoin: miter; stroke-miterlimit: 4; fill: none; fill-rule: nonzero; opacity: 1;" vector-effect="non-scaling-stroke"  transform=" translate(-374.33, -234.8)" d="M 357 220 Q 345 240 357 247 Q 387 257 395 251 Q 403 241 392 223 Q 388 213 378 217 Q 356 217 357 220" stroke-linecap="round" />
</g>
<g transform="matrix(1 0 0 1 378.91 307.55)"  >
<path style="stroke: rgb(0,0,0); stroke-width: 2; stroke-dasharray: none; stroke-linecap: butt; stroke-dashoffset: 0; stroke-linejoin: miter; stroke-miterlimit: 4; fill: none; fill-rule: nonzero; opacity: 1;" vector-effect="non-scaling-stroke"  transform=" translate(-377.91, -306.55)" d="M 368 282 Q 349 297 352 314 Q 354 334 369 330 Q 392 324 399 315 Q 407 300 401 292 Q 395 281 388 281 L 368 282" stroke-linecap="round" />
</g>
<g transform="matrix(1 0 0 1 380.67 310)"  >
<path style="stroke: rgb(0,0,0); stroke-width: 2; stroke-dasharray: none; stroke-linecap: butt; stroke-dashoffset: 0; stroke-linejoin: miter; stroke-miterlimit: 4; fill: none; fill-rule: nonzero; opacity: 1;" vector-effect="non-scaling-stroke"  transform=" translate(-379.67, -309)" d="M 374 298 Q 387 310 383 320" stroke-linecap="round" />
</g>
<g transform="matrix(1 0 0 1 385 239)"  >
<path style="stroke: rgb(0,0,0); stroke-width: 2; stroke-dasharray: none; stroke-linecap: butt; stroke-dashoffset: 0; stroke-linejoin: miter; stroke-miterlimit: 4; fill: none; fill-rule: nonzero; opacity: 1;" vector-effect="non-scaling-stroke"  transform=" translate(-384, -238)" d="M 376 231 Q 387 231 392 245" stroke-linecap="round" />
</g>
<g transform="matrix(1 0 0 1 386.03 356.26)"  >
<path style="stroke: rgb(0,0,0); stroke-width: 2; stroke-dasharray: none; stroke-linecap: butt; stroke-dashoffset: 0; stroke-linejoin: miter; stroke-miterlimit: 4; fill: none; fill-rule: nonzero; opacity: 1;" vector-effect="non-scaling-stroke"  transform=" translate(-385.03, -355.26)" d="M 390 338 Q 366 332 363 345 Q 354 360 365 365 Q 375 375 387 375 Q 400 377 404 374 Q 416 363 408 352 Q 405 339 390 338" stroke-linecap="round" />
</g>
</svg>