<?xml version="1.0" encoding="UTF-8" standalone="no" ?>
<!DOCTYPE svg PUBLIC "-//W3C//DTD SVG 1.1//EN" "http://www.w3.org/Graphics/SVG/1.1/DTD/svg11.dtd">
<svg xmlns="http://www.w3.org/2000/svg" xmlns:xlink="http://www.w3.org/1999/xlink" version="1.1" width="640" height="480" viewBox="0 0 640 480" xml:space="preserve">
<desc>Created with Fabric.js 3.6.6</desc>
<defs>
</defs>
<g transform="matrix(1 0 0 1 320.4 236.31)"  >
<path style="stroke: rgb(0,0,0); stroke-width: 2; stroke-dasharray: none; stroke-linecap: butt; stroke-dashoffset: 0; stroke-linejoin: miter; stroke-miterlimit: 4; fill: none; fill-rule: nonzero; opacity: 1;" vector-effect="non-scaling-stroke"  transform=" translate(-314.4, -281.31)" d="M 226.5 99 Q 185.5 103 186.5 113 L 186.5 121 Q 147.5 118 145.5 134 Q 107.5 143 116.5 167 Q 121.5 199 117.5 203 Q 95.5 212 103.5 229 Q 97.5 252 107.5 252 Q 83.5 267 97.5 288 Q 105.5 340 128.5 334 Q 131.5 372 142.5 371 Q 165.5 401 180.5 404 Q 224.5 462 255.5 450 Q 266.5 441 278.5 460 Q 327.5 503 394.5 456 Q 409.5 445 409.5 441 Q 415.5 434 412.5 423 Q 403.5 407 427.5 429 Q 458.5 449 507.5 390 Q 548.5 332 524.5 247 Q 506.5 132 427.5 107 Q 397.5 79 384.5 90 Q 354.5 68 328.5 75 Q 238.5 71 226.5 99" stroke-linecap="round" />
</g>
</svg>