<?xml version="1.0" encoding="UTF-8" standalone="no" ?>
<!DOCTYPE svg PUBLIC "-//W3C//DTD SVG 1.1//EN" "http://www.w3.org/Graphics/SVG/1.1/DTD/svg11.dtd">
<svg xmlns="http://www.w3.org/2000/svg" xmlns:xlink="http://www.w3.org/1999/xlink" version="1.1" width="500" height="500" viewBox="0 0 500 500" xml:space="preserve">
<desc>Created with Fabric.js 4.6.0</desc>
<defs>
</defs>
<g transform="matrix(1 0 0 1 155.35 257.97)" id="CJmrMNQmSPiaonXjnDRkA"  >
<path style="stroke: rgb(0,0,0); stroke-width: 1; stroke-dasharray: none; stroke-linecap: butt; stroke-dashoffset: 0; stroke-linejoin: miter; stroke-miterlimit: 4; fill: rgb(255,255,255); fill-opacity: 0; fill-rule: nonzero; opacity: 1;" vector-effect="non-scaling-stroke"  transform=" translate(0, 0)" d="M 0 0" stroke-linecap="round" />
</g>
<g transform="matrix(1 0 0 1 246.5 229.79)" id="6U29hWJwOGduL6PLE2zms"  >
<path style="stroke: rgb(0,0,0); stroke-width: 1; stroke-dasharray: none; stroke-linecap: butt; stroke-dashoffset: 0; stroke-linejoin: miter; stroke-miterlimit: 4; fill: rgb(255,255,255); fill-opacity: 0; fill-rule: nonzero; opacity: 1;" vector-effect="non-scaling-stroke"  transform=" translate(0, 0)" d="M 0 0" stroke-linecap="round" />
</g>
<g transform="matrix(1 0 0 1 240.1 247.28)" id="GsTJVapo-GBPxyE4dyTdL"  >
<path style="stroke: rgb(0,0,0); stroke-width: 1; stroke-dasharray: none; stroke-linecap: butt; stroke-dashoffset: 0; stroke-linejoin: miter; stroke-miterlimit: 4; fill: rgb(255,255,255); fill-opacity: 0; fill-rule: nonzero; opacity: 1;" vector-effect="non-scaling-stroke"  transform=" translate(0, 0)" d="M 0 0" stroke-linecap="round" />
</g>
<g transform="matrix(1 0 0 1 386.01 170.6)" id="LgCvlqsuGSW3tsmguEhyj"  >
<path style="stroke: rgb(0,0,0); stroke-width: 1; stroke-dasharray: none; stroke-linecap: butt; stroke-dashoffset: 0; stroke-linejoin: miter; stroke-miterlimit: 4; fill: rgb(255,255,255); fill-opacity: 0; fill-rule: nonzero; opacity: 1;" vector-effect="non-scaling-stroke"  transform=" translate(-30, -28.48)" d="M 1.57089 37.15972 C 1.57089 37.15972 4.80307 55.81255 22.84938 56.863420000000005 C 40.89569 57.914280000000005 51.40026 50.29552 53.01635 46.880210000000005 C 54.63244 43.46490000000001 63.100030000000004 37.68515000000001 58.79046 22.184910000000006 C 54.48089 6.684670000000006 39.548950000000005 2.218500000000006 39.548950000000005 2.218500000000006 C 39.548950000000005 2.218500000000006 23.657420000000005 -2.773099999999994 15.576980000000006 2.218500000000006 C 7.496540000000007 7.210100000000006 1.7425500000000067 18.563070000000007 0.3958100000000062 25.130970000000005 C -0.9509299999999938 31.698870000000007 1.5708800000000063 37.15972000000001 1.5708800000000063 37.15972000000001 z" stroke-linecap="round" />
</g>
<g transform="matrix(1 0 0 1 240.1 246.78)" id="S7kWCh-66eMeCBc6rKPjA"  >
<path style="stroke: rgb(0,0,0); stroke-width: 1; stroke-dasharray: none; stroke-linecap: butt; stroke-dashoffset: 0; stroke-linejoin: miter; stroke-miterlimit: 4; fill: rgb(255,255,255); fill-opacity: 0; fill-rule: nonzero; opacity: 1;" vector-effect="non-scaling-stroke"  transform=" translate(0, 0)" d="M 0 0" stroke-linecap="round" />
</g>
<g transform="matrix(1 0 0 1 278.6 86.71)" id="RV2ipDSzK0MPApnSoRb31"  >
<path style="stroke: rgb(0,0,0); stroke-width: 1; stroke-dasharray: none; stroke-linecap: butt; stroke-dashoffset: 0; stroke-linejoin: miter; stroke-miterlimit: 4; fill: rgb(255,255,255); fill-opacity: 0; fill-rule: nonzero; opacity: 1;" vector-effect="non-scaling-stroke"  transform=" translate(-30, -30)" d="M 0.50711 37.60019 C 0.50711 37.60019 0.50711 43.737489999999994 6.66819 49.173539999999996 C 6.66819 49.173539999999996 11.62786 45.754259999999995 9.66752 52.54933 C 20.86949 59.616189999999996 29.072119999999998 63.14963 40.83419 56.35456 C 40.83419 56.35456 39.1539 48.67265 45.03493 54.65231 C 59.87753 42.9648 60.000020000000006 34.33856 60.000020000000006 27.8153 C 60.000020000000006 27.8153 48.79805 27.408640000000002 60.000020000000006 24.14701 C 54.39904000000001 6.7516500000000015 40.83419000000001 1.994060000000001 40.83419000000001 1.994060000000001 C 40.83419000000001 1.994060000000001 34.953160000000004 8.96948 35.793310000000005 1.1102230246251565e-15 C 15.629770000000004 1.1102230246251565e-15 12.269180000000006 5.255690000000001 8.908590000000004 7.701910000000001 C 8.908590000000004 7.701910000000001 11.989130000000003 13.40976 5.267950000000004 11.23534 C -2.2933799999999955 24.010060000000003 0.5071100000000044 37.60018 0.5071100000000044 37.60018 z" stroke-linecap="round" />
</g>
<g transform="matrix(1 0 0 1 230.87 230.29)" id="gaw15i05uTQpd7u2FaC-i"  >
<path style="stroke: rgb(0,0,0); stroke-width: 1; stroke-dasharray: none; stroke-linecap: butt; stroke-dashoffset: 0; stroke-linejoin: miter; stroke-miterlimit: 4; fill: rgb(255,255,255); fill-opacity: 0; fill-rule: nonzero; opacity: 1;" vector-effect="non-scaling-stroke"  transform=" translate(0, 0)" d="M 0 0" stroke-linecap="round" />
</g>
<g transform="matrix(1 0 0 1 185.94 95.96)" id="1QuzFF0UmUQb5SIB69CwP"  >
<path style="stroke: rgb(0,0,0); stroke-width: 1; stroke-dasharray: none; stroke-linecap: butt; stroke-dashoffset: 0; stroke-linejoin: miter; stroke-miterlimit: 4; fill: rgb(255,255,255); fill-opacity: 0; fill-rule: nonzero; opacity: 1;" vector-effect="non-scaling-stroke"  transform=" translate(-30, -30.44)" d="M 0.46568 31.41217 C 0.46568 31.41217 -2.45447 40.17931 6.33013 50.06198 C 6.33013 50.06198 24.9974 32.6877 11.8205 53.55111 C 28.56614 70.02223000000001 49.704089999999994 53.55111 49.704089999999994 53.55111 C 49.704089999999994 53.55111 65.9007 44.02257 57.66512999999999 20.68849 C 49.42956999999999 -2.6455899999999986 32.958439999999996 0.09960000000000235 32.958439999999996 0.09960000000000235 C 32.958439999999996 0.09960000000000235 14.565679999999997 -0.9984699999999977 6.330119999999997 9.707750000000003 C -1.9054400000000022 20.413980000000002 0.4656699999999976 31.41218 0.4656699999999976 31.41218 z" stroke-linecap="round" />
</g>
<g transform="matrix(1 0 0 1 273.76 170.6)" id="m8fAtTS8F0hy1TfuOOIR5"  >
<path style="stroke: rgb(0,0,0); stroke-width: 1; stroke-dasharray: none; stroke-linecap: butt; stroke-dashoffset: 0; stroke-linejoin: miter; stroke-miterlimit: 4; fill: rgb(255,255,255); fill-opacity: 0; fill-rule: nonzero; opacity: 1;" vector-effect="non-scaling-stroke"  transform=" translate(-30, -30)" d="M 19.43696 2.55254 C 19.43696 2.55254 26.365679999999998 -1.3266399999999998 33.3527 0.47931999999999997 C 33.3527 0.47931999999999997 32.1882 17.492720000000002 38.8425 1.56748 C 47.32674 3.70179 49.98846 7.47788 52.48382 10.43308 C 54.97918 13.38828 61.14496 21.43299 59.8141 31.11948 C 58.48324 40.80597 54.147400000000005 47.86701 51.48568 50.98639 C 48.82396 54.10577 39.87352 62.64161 24.568620000000003 59.19388 C 9.263720000000003 55.74615 2.232140000000001 47.53726 0.7349200000000025 37.85077 C -0.7622999999999975 28.164279999999998 -0.2515299999999976 20.776279999999996 4.905560000000002 13.552459999999996 C 10.062650000000001 6.3286399999999965 15.219730000000002 4.194329999999997 17.38238 3.373439999999997 C 19.54503 2.552549999999997 19.436970000000002 2.552549999999997 19.436970000000002 2.552549999999997 z" stroke-linecap="round" />
</g>
<g transform="matrix(1 0 0 1 386.01 80.84)" id="XU6weKxeKgDi13to3k6kM"  >
<path style="stroke: rgb(0,0,0); stroke-width: 1; stroke-dasharray: none; stroke-linecap: butt; stroke-dashoffset: 0; stroke-linejoin: miter; stroke-miterlimit: 4; fill: rgb(255,255,255); fill-opacity: 0; fill-rule: nonzero; opacity: 1;" vector-effect="non-scaling-stroke"  transform=" translate(-30, -30)" d="M 0.13458 26.83692 C 4.06164 11.255279999999999 7.90358 6.1382200000000005 19.40427 1.8886800000000008 C 20.92793 1.3256800000000009 22.41685 0.9118600000000008 23.85351 0.6175800000000009 C 33.26087 -1.3094499999999991 40.42702 1.8886800000000008 40.42702 1.8886800000000008 C 40.42702 1.8886800000000008 54.732749999999996 7.2714300000000005 58.379310000000004 19.45344 C 62.025870000000005 31.63545 58.379310000000004 40.268609999999995 58.379310000000004 40.268609999999995 C 58.379310000000004 40.268609999999995 55.57426 48.84889999999999 49.683670000000006 52.248529999999995 C 43.79307000000001 58.48119 32.29239000000001 60.474709999999995 28.365320000000008 59.9081 C 24.438260000000007 59.34149 10.413030000000006 54.82092 6.485960000000009 50.00476999999999 C 0.5953600000000092 42.355599999999995 -0.426429999999991 37.885709999999996 0.13458000000000947 26.836909999999992 z" stroke-linecap="round" />
</g>
<g transform="matrix(1 0 0 1 78.59 103.89)" id="xemd5M_NoX4yvSdpXciH1"  >
<path style="stroke: rgb(0,0,0); stroke-width: 1; stroke-dasharray: none; stroke-linecap: butt; stroke-dashoffset: 0; stroke-linejoin: miter; stroke-miterlimit: 4; fill: rgb(255,255,255); fill-opacity: 0; fill-rule: nonzero; opacity: 1;" vector-effect="non-scaling-stroke"  transform=" translate(-30, -30)" d="M 1.59256 40.66674 C 1.59256 40.66674 4.28115 48.51385 10.71242 52.153099999999995 C 10.71242 52.153099999999995 21.0949 43.262139999999995 16.06174 56.699369999999995 C 21.93377 58.93890999999999 38.15175 64.75049999999999 51.57353 52.153099999999995 C 61.919489999999996 37.316159999999996 59.94938 30.704529999999995 59.66976 24.825749999999996 C 59.66976 24.825749999999996 51.014289999999995 23.666179999999997 56.047459999999994 16.947559999999996 C 47.37922999999999 2.1106199999999955 39.27023 -1.6415400000000027 21.374529999999993 0.5979999999999954 C 3.478819999999992 2.8375399999999953 0.22327999999999193 23.155589999999997 0.22327999999999193 23.155589999999997 C 0.22327999999999193 23.155589999999997 -0.27909000000000805 34.024049999999995 0.22327999999999193 37.10342 C 1.142709999999992 38.09508 1.5925699999999918 40.66675 1.5925699999999918 40.66675 z" stroke-linecap="round" />
</g>
<g transform="matrix(1 0 0 1 182.56 185.25)" id="5AwyUXbp0tf9bO5dioFLt"  >
<path style="stroke: rgb(0,0,0); stroke-width: 1; stroke-dasharray: none; stroke-linecap: butt; stroke-dashoffset: 0; stroke-linejoin: miter; stroke-miterlimit: 4; fill: rgb(255,255,255); fill-opacity: 0; fill-rule: nonzero; opacity: 1;" vector-effect="non-scaling-stroke"  transform=" translate(-30, -30.09)" d="M 18.95244 2.00072 L 13.39548 5.4405 C 13.39548 5.4405 6.959489999999999 7.39759 3.8490699999999993 15.95123 C 6.570679999999999 17.50644 6.924159999999999 22.56087 1.8697399999999993 21.394460000000002 C -2.0182800000000007 33.447320000000005 0.11477999999999922 41.71493 8.66842 51.04618000000001 C 17.22206 60.377430000000004 29.754289999999997 60.16042000000001 29.754289999999997 60.16042000000001 C 29.754289999999997 60.16042000000001 47.74838 61.05227000000001 55.135619999999996 47.44420000000001 C 60.19005 31.89212000000001 62.91166 27.61529000000001 55.135619999999996 9.73040000000001 C 43.47156 -3.4888699999999897 24.160479999999996 0.5959400000000095 24.160479999999996 0.5959400000000095 z" stroke-linecap="round" />
</g>
<g transform="matrix(1 0 0 1 76.09 194.9)" id="xFKCuySN7ydeiXXJ3Ykw_"  >
<path style="stroke: rgb(0,0,0); stroke-width: 1; stroke-dasharray: none; stroke-linecap: butt; stroke-dashoffset: 0; stroke-linejoin: miter; stroke-miterlimit: 4; fill: rgb(255,255,255); fill-opacity: 0; fill-rule: nonzero; opacity: 1;" vector-effect="non-scaling-stroke"  transform=" translate(-30, -30)" d="M 1.75834 23.80162 C 1.75834 23.80162 -1.32619 29.527540000000002 0.6754899999999999 36.3617 C 0.6754899999999999 36.3617 16.13404 35.438159999999996 5.7617 45.96647 C 8.85521 51.13827 12.312660000000001 57.60302 21.59318 59.08067 C 30.8737 60.55833 42.883790000000005 61.569869999999995 51.618390000000005 51.22627 C 55.257810000000006 46.05447 57.805400000000006 42.82644 59.44314000000001 36.3617 C 61.08088000000001 29.896949999999997 59.07920000000001 15.489799999999999 53.802040000000005 11.056829999999998 C 53.802040000000005 11.056829999999998 45.97729 13.273319999999998 47.615030000000004 5.700319999999998 C 39.79028 -0.7644300000000026 28.872020000000003 0.03772999999999804 28.872020000000003 0.03772999999999804 C 28.872020000000003 0.03772999999999804 15.952080000000002 -1.133840000000002 8.127330000000004 9.579169999999998 C 3.9420000000000037 15.489799999999999 1.7583500000000045 23.80162 1.7583500000000045 23.80162 z" stroke-linecap="round" />
</g>
</svg>